<?xml version="1.0" encoding="UTF-8" standalone="no"?>
<!DOCTYPE svg PUBLIC "-//W3C//DTD SVG 1.1//EN"
 "http://www.w3.org/Graphics/SVG/1.1/DTD/svg11.dtd">
<!-- Generated by graphviz version 2.43.0 (0)
 -->
<!-- Title: Tree Pages: 1 -->
<svg width="1660pt" height="685pt"
 viewBox="0.00 0.00 1660.00 685.00" xmlns="http://www.w3.org/2000/svg" xmlns:xlink="http://www.w3.org/1999/xlink">
<g id="graph0" class="graph" transform="scale(1 1) rotate(0) translate(4 681)">
<title>Tree</title>
<polygon fill="white" stroke="transparent" points="-4,4 -4,-681 1656,-681 1656,4 -4,4"/>
<!-- 0 -->
<g id="node1" class="node">
<title>0</title>
<path fill="#fcf0e7" stroke="black" d="M920.5,-677C920.5,-677 763.5,-677 763.5,-677 757.5,-677 751.5,-671 751.5,-665 751.5,-665 751.5,-621 751.5,-621 751.5,-615 757.5,-609 763.5,-609 763.5,-609 920.5,-609 920.5,-609 926.5,-609 932.5,-615 932.5,-621 932.5,-621 932.5,-665 932.5,-665 932.5,-671 926.5,-677 920.5,-677"/>
<text text-anchor="start" x="793.5" y="-661.8" font-family="Helvetica,sans-Serif" font-size="14.00">LSTAT ≤ 1967.0</text>
<text text-anchor="start" x="759.5" y="-646.8" font-family="Helvetica,sans-Serif" font-size="14.00">squared_error = 68103.174</text>
<text text-anchor="start" x="797" y="-631.8" font-family="Helvetica,sans-Serif" font-size="14.00">samples = 179</text>
<text text-anchor="start" x="793.5" y="-616.8" font-family="Helvetica,sans-Serif" font-size="14.00">value = 213.659</text>
</g>
<!-- 1 -->
<g id="node2" class="node">
<title>1</title>
<path fill="#fdf5f0" stroke="black" d="M639.5,-573C639.5,-573 482.5,-573 482.5,-573 476.5,-573 470.5,-567 470.5,-561 470.5,-561 470.5,-517 470.5,-517 470.5,-511 476.5,-505 482.5,-505 482.5,-505 639.5,-505 639.5,-505 645.5,-505 651.5,-511 651.5,-517 651.5,-517 651.5,-561 651.5,-561 651.5,-567 645.5,-573 639.5,-573"/>
<text text-anchor="start" x="516" y="-557.8" font-family="Helvetica,sans-Serif" font-size="14.00">LSTAT ≤ 406.0</text>
<text text-anchor="start" x="478.5" y="-542.8" font-family="Helvetica,sans-Serif" font-size="14.00">squared_error = 16894.823</text>
<text text-anchor="start" x="516" y="-527.8" font-family="Helvetica,sans-Serif" font-size="14.00">samples = 163</text>
<text text-anchor="start" x="516" y="-512.8" font-family="Helvetica,sans-Serif" font-size="14.00">value = 148.73</text>
</g>
<!-- 0&#45;&gt;1 -->
<g id="edge1" class="edge">
<title>0&#45;&gt;1</title>
<path fill="none" stroke="black" d="M751.16,-609.02C722.36,-598.57 690.38,-586.96 660.98,-576.29"/>
<polygon fill="black" stroke="black" points="662.13,-572.98 651.53,-572.86 659.74,-579.56 662.13,-572.98"/>
<text text-anchor="middle" x="662.12" y="-591.81" font-family="Helvetica,sans-Serif" font-size="14.00">True</text>
</g>
<!-- 2 -->
<g id="node19" class="node">
<title>2</title>
<path fill="#f0b88f" stroke="black" d="M1206,-573C1206,-573 1042,-573 1042,-573 1036,-573 1030,-567 1030,-561 1030,-561 1030,-517 1030,-517 1030,-511 1036,-505 1042,-505 1042,-505 1206,-505 1206,-505 1212,-505 1218,-511 1218,-517 1218,-517 1218,-561 1218,-561 1218,-567 1212,-573 1206,-573"/>
<text text-anchor="start" x="1084.5" y="-557.8" font-family="Helvetica,sans-Serif" font-size="14.00">RM ≤ 3090.0</text>
<text text-anchor="start" x="1038" y="-542.8" font-family="Helvetica,sans-Serif" font-size="14.00">squared_error = 109302.859</text>
<text text-anchor="start" x="1083" y="-527.8" font-family="Helvetica,sans-Serif" font-size="14.00">samples = 16</text>
<text text-anchor="start" x="1075.5" y="-512.8" font-family="Helvetica,sans-Serif" font-size="14.00">value = 875.125</text>
</g>
<!-- 0&#45;&gt;2 -->
<g id="edge18" class="edge">
<title>0&#45;&gt;2</title>
<path fill="none" stroke="black" d="M932.78,-609.17C961.55,-598.76 993.52,-587.19 1022.96,-576.55"/>
<polygon fill="black" stroke="black" points="1024.21,-579.82 1032.42,-573.12 1021.83,-573.23 1024.21,-579.82"/>
<text text-anchor="middle" x="1021.81" y="-592.06" font-family="Helvetica,sans-Serif" font-size="14.00">False</text>
</g>
<!-- 3 -->
<g id="node3" class="node">
<title>3</title>
<path fill="#fefdfb" stroke="black" d="M345.5,-469C345.5,-469 196.5,-469 196.5,-469 190.5,-469 184.5,-463 184.5,-457 184.5,-457 184.5,-413 184.5,-413 184.5,-407 190.5,-401 196.5,-401 196.5,-401 345.5,-401 345.5,-401 351.5,-401 357.5,-407 357.5,-413 357.5,-413 357.5,-457 357.5,-457 357.5,-463 351.5,-469 345.5,-469"/>
<text text-anchor="start" x="226" y="-453.8" font-family="Helvetica,sans-Serif" font-size="14.00">LSTAT ≤ 152.0</text>
<text text-anchor="start" x="192.5" y="-438.8" font-family="Helvetica,sans-Serif" font-size="14.00">squared_error = 2170.079</text>
<text text-anchor="start" x="230" y="-423.8" font-family="Helvetica,sans-Serif" font-size="14.00">samples = 95</text>
<text text-anchor="start" x="226" y="-408.8" font-family="Helvetica,sans-Serif" font-size="14.00">value = 62.653</text>
</g>
<!-- 1&#45;&gt;3 -->
<g id="edge2" class="edge">
<title>1&#45;&gt;3</title>
<path fill="none" stroke="black" d="M470.44,-506.15C437.76,-494.65 400.78,-481.65 367.61,-469.98"/>
<polygon fill="black" stroke="black" points="368.5,-466.58 357.91,-466.57 366.18,-473.19 368.5,-466.58"/>
</g>
<!-- 4 -->
<g id="node6" class="node">
<title>4</title>
<path fill="#fbebe0" stroke="black" d="M639.5,-469C639.5,-469 482.5,-469 482.5,-469 476.5,-469 470.5,-463 470.5,-457 470.5,-457 470.5,-413 470.5,-413 470.5,-407 476.5,-401 482.5,-401 482.5,-401 639.5,-401 639.5,-401 645.5,-401 651.5,-407 651.5,-413 651.5,-413 651.5,-457 651.5,-457 651.5,-463 645.5,-469 639.5,-469"/>
<text text-anchor="start" x="516" y="-453.8" font-family="Helvetica,sans-Serif" font-size="14.00">LSTAT ≤ 990.0</text>
<text text-anchor="start" x="478.5" y="-438.8" font-family="Helvetica,sans-Serif" font-size="14.00">squared_error = 12653.573</text>
<text text-anchor="start" x="520" y="-423.8" font-family="Helvetica,sans-Serif" font-size="14.00">samples = 68</text>
<text text-anchor="start" x="512.5" y="-408.8" font-family="Helvetica,sans-Serif" font-size="14.00">value = 268.985</text>
</g>
<!-- 1&#45;&gt;4 -->
<g id="edge5" class="edge">
<title>1&#45;&gt;4</title>
<path fill="none" stroke="black" d="M561,-504.88C561,-496.78 561,-487.98 561,-479.47"/>
<polygon fill="black" stroke="black" points="564.5,-479.3 561,-469.3 557.5,-479.3 564.5,-479.3"/>
</g>
<!-- 11 -->
<g id="node4" class="node">
<title>11</title>
<path fill="#ffffff" stroke="black" d="M154,-357.5C154,-357.5 12,-357.5 12,-357.5 6,-357.5 0,-351.5 0,-345.5 0,-345.5 0,-316.5 0,-316.5 0,-310.5 6,-304.5 12,-304.5 12,-304.5 154,-304.5 154,-304.5 160,-304.5 166,-310.5 166,-316.5 166,-316.5 166,-345.5 166,-345.5 166,-351.5 160,-357.5 154,-357.5"/>
<text text-anchor="start" x="8" y="-342.3" font-family="Helvetica,sans-Serif" font-size="14.00">squared_error = 484.855</text>
<text text-anchor="start" x="42" y="-327.3" font-family="Helvetica,sans-Serif" font-size="14.00">samples = 58</text>
<text text-anchor="start" x="38" y="-312.3" font-family="Helvetica,sans-Serif" font-size="14.00">value = 33.155</text>
</g>
<!-- 3&#45;&gt;11 -->
<g id="edge3" class="edge">
<title>3&#45;&gt;11</title>
<path fill="none" stroke="black" d="M209.96,-400.88C187.16,-388.51 161.39,-374.53 139.06,-362.41"/>
<polygon fill="black" stroke="black" points="140.5,-359.21 130.04,-357.52 137.16,-365.37 140.5,-359.21"/>
</g>
<!-- 12 -->
<g id="node5" class="node">
<title>12</title>
<path fill="#fef9f5" stroke="black" d="M345.5,-357.5C345.5,-357.5 196.5,-357.5 196.5,-357.5 190.5,-357.5 184.5,-351.5 184.5,-345.5 184.5,-345.5 184.5,-316.5 184.5,-316.5 184.5,-310.5 190.5,-304.5 196.5,-304.5 196.5,-304.5 345.5,-304.5 345.5,-304.5 351.5,-304.5 357.5,-310.5 357.5,-316.5 357.5,-316.5 357.5,-345.5 357.5,-345.5 357.5,-351.5 351.5,-357.5 345.5,-357.5"/>
<text text-anchor="start" x="192.5" y="-342.3" font-family="Helvetica,sans-Serif" font-size="14.00">squared_error = 1309.772</text>
<text text-anchor="start" x="230" y="-327.3" font-family="Helvetica,sans-Serif" font-size="14.00">samples = 37</text>
<text text-anchor="start" x="222.5" y="-312.3" font-family="Helvetica,sans-Serif" font-size="14.00">value = 108.892</text>
</g>
<!-- 3&#45;&gt;12 -->
<g id="edge4" class="edge">
<title>3&#45;&gt;12</title>
<path fill="none" stroke="black" d="M271,-400.88C271,-390.33 271,-378.6 271,-367.85"/>
<polygon fill="black" stroke="black" points="274.5,-367.52 271,-357.52 267.5,-367.52 274.5,-367.52"/>
</g>
<!-- 9 -->
<g id="node7" class="node">
<title>9</title>
<path fill="#fcefe6" stroke="black" d="M536.5,-365C536.5,-365 387.5,-365 387.5,-365 381.5,-365 375.5,-359 375.5,-353 375.5,-353 375.5,-309 375.5,-309 375.5,-303 381.5,-297 387.5,-297 387.5,-297 536.5,-297 536.5,-297 542.5,-297 548.5,-303 548.5,-309 548.5,-309 548.5,-353 548.5,-353 548.5,-359 542.5,-365 536.5,-365"/>
<text text-anchor="start" x="426.5" y="-349.8" font-family="Helvetica,sans-Serif" font-size="14.00">RM ≤ 603.0</text>
<text text-anchor="start" x="383.5" y="-334.8" font-family="Helvetica,sans-Serif" font-size="14.00">squared_error = 5150.684</text>
<text text-anchor="start" x="421" y="-319.8" font-family="Helvetica,sans-Serif" font-size="14.00">samples = 50</text>
<text text-anchor="start" x="417" y="-304.8" font-family="Helvetica,sans-Serif" font-size="14.00">value = 222.42</text>
</g>
<!-- 4&#45;&gt;9 -->
<g id="edge6" class="edge">
<title>4&#45;&gt;9</title>
<path fill="none" stroke="black" d="M528.86,-400.88C520.13,-391.89 510.57,-382.04 501.48,-372.68"/>
<polygon fill="black" stroke="black" points="503.8,-370.04 494.32,-365.3 498.77,-374.91 503.8,-370.04"/>
</g>
<!-- 10 -->
<g id="node12" class="node">
<title>10</title>
<path fill="#f9e0ce" stroke="black" d="M735.5,-365C735.5,-365 578.5,-365 578.5,-365 572.5,-365 566.5,-359 566.5,-353 566.5,-353 566.5,-309 566.5,-309 566.5,-303 572.5,-297 578.5,-297 578.5,-297 735.5,-297 735.5,-297 741.5,-297 747.5,-303 747.5,-309 747.5,-309 747.5,-353 747.5,-353 747.5,-359 741.5,-365 735.5,-365"/>
<text text-anchor="start" x="617.5" y="-349.8" font-family="Helvetica,sans-Serif" font-size="14.00">RM ≤ 1240.5</text>
<text text-anchor="start" x="574.5" y="-334.8" font-family="Helvetica,sans-Serif" font-size="14.00">squared_error = 10740.889</text>
<text text-anchor="start" x="616" y="-319.8" font-family="Helvetica,sans-Serif" font-size="14.00">samples = 18</text>
<text text-anchor="start" x="608.5" y="-304.8" font-family="Helvetica,sans-Serif" font-size="14.00">value = 398.333</text>
</g>
<!-- 4&#45;&gt;10 -->
<g id="edge11" class="edge">
<title>4&#45;&gt;10</title>
<path fill="none" stroke="black" d="M592.17,-400.88C600.64,-391.89 609.9,-382.04 618.71,-372.68"/>
<polygon fill="black" stroke="black" points="621.35,-374.98 625.66,-365.3 616.26,-370.18 621.35,-374.98"/>
</g>
<!-- 15 -->
<g id="node8" class="node">
<title>15</title>
<path fill="#fdf4ee" stroke="black" d="M345.5,-253.5C345.5,-253.5 196.5,-253.5 196.5,-253.5 190.5,-253.5 184.5,-247.5 184.5,-241.5 184.5,-241.5 184.5,-212.5 184.5,-212.5 184.5,-206.5 190.5,-200.5 196.5,-200.5 196.5,-200.5 345.5,-200.5 345.5,-200.5 351.5,-200.5 357.5,-206.5 357.5,-212.5 357.5,-212.5 357.5,-241.5 357.5,-241.5 357.5,-247.5 351.5,-253.5 345.5,-253.5"/>
<text text-anchor="start" x="192.5" y="-238.3" font-family="Helvetica,sans-Serif" font-size="14.00">squared_error = 1193.101</text>
<text text-anchor="start" x="230" y="-223.3" font-family="Helvetica,sans-Serif" font-size="14.00">samples = 13</text>
<text text-anchor="start" x="222.5" y="-208.3" font-family="Helvetica,sans-Serif" font-size="14.00">value = 163.769</text>
</g>
<!-- 9&#45;&gt;15 -->
<g id="edge7" class="edge">
<title>9&#45;&gt;15</title>
<path fill="none" stroke="black" d="M399.99,-296.88C376.72,-284.46 350.41,-270.41 327.65,-258.25"/>
<polygon fill="black" stroke="black" points="329.26,-255.14 318.79,-253.52 325.96,-261.32 329.26,-255.14"/>
</g>
<!-- 16 -->
<g id="node9" class="node">
<title>16</title>
<path fill="#fbede3" stroke="black" d="M536.5,-261C536.5,-261 387.5,-261 387.5,-261 381.5,-261 375.5,-255 375.5,-249 375.5,-249 375.5,-205 375.5,-205 375.5,-199 381.5,-193 387.5,-193 387.5,-193 536.5,-193 536.5,-193 542.5,-193 548.5,-199 548.5,-205 548.5,-205 548.5,-249 548.5,-249 548.5,-255 542.5,-261 536.5,-261"/>
<text text-anchor="start" x="417" y="-245.8" font-family="Helvetica,sans-Serif" font-size="14.00">LSTAT ≤ 882.0</text>
<text text-anchor="start" x="383.5" y="-230.8" font-family="Helvetica,sans-Serif" font-size="14.00">squared_error = 4907.918</text>
<text text-anchor="start" x="421" y="-215.8" font-family="Helvetica,sans-Serif" font-size="14.00">samples = 37</text>
<text text-anchor="start" x="413.5" y="-200.8" font-family="Helvetica,sans-Serif" font-size="14.00">value = 243.027</text>
</g>
<!-- 9&#45;&gt;16 -->
<g id="edge8" class="edge">
<title>9&#45;&gt;16</title>
<path fill="none" stroke="black" d="M462,-296.88C462,-288.78 462,-279.98 462,-271.47"/>
<polygon fill="black" stroke="black" points="465.5,-271.3 462,-261.3 458.5,-271.3 465.5,-271.3"/>
</g>
<!-- 17 -->
<g id="node10" class="node">
<title>17</title>
<path fill="#fceee5" stroke="black" d="M348.5,-149.5C348.5,-149.5 199.5,-149.5 199.5,-149.5 193.5,-149.5 187.5,-143.5 187.5,-137.5 187.5,-137.5 187.5,-108.5 187.5,-108.5 187.5,-102.5 193.5,-96.5 199.5,-96.5 199.5,-96.5 348.5,-96.5 348.5,-96.5 354.5,-96.5 360.5,-102.5 360.5,-108.5 360.5,-108.5 360.5,-137.5 360.5,-137.5 360.5,-143.5 354.5,-149.5 348.5,-149.5"/>
<text text-anchor="start" x="195.5" y="-134.3" font-family="Helvetica,sans-Serif" font-size="14.00">squared_error = 2965.677</text>
<text text-anchor="start" x="233" y="-119.3" font-family="Helvetica,sans-Serif" font-size="14.00">samples = 33</text>
<text text-anchor="start" x="225.5" y="-104.3" font-family="Helvetica,sans-Serif" font-size="14.00">value = 229.667</text>
</g>
<!-- 16&#45;&gt;17 -->
<g id="edge9" class="edge">
<title>16&#45;&gt;17</title>
<path fill="none" stroke="black" d="M400.96,-192.88C378.16,-180.51 352.39,-166.53 330.06,-154.41"/>
<polygon fill="black" stroke="black" points="331.5,-151.21 321.04,-149.52 328.16,-157.37 331.5,-151.21"/>
</g>
<!-- 18 -->
<g id="node11" class="node">
<title>18</title>
<path fill="#f9e4d4" stroke="black" d="M539.5,-149.5C539.5,-149.5 390.5,-149.5 390.5,-149.5 384.5,-149.5 378.5,-143.5 378.5,-137.5 378.5,-137.5 378.5,-108.5 378.5,-108.5 378.5,-102.5 384.5,-96.5 390.5,-96.5 390.5,-96.5 539.5,-96.5 539.5,-96.5 545.5,-96.5 551.5,-102.5 551.5,-108.5 551.5,-108.5 551.5,-137.5 551.5,-137.5 551.5,-143.5 545.5,-149.5 539.5,-149.5"/>
<text text-anchor="start" x="386.5" y="-134.3" font-family="Helvetica,sans-Serif" font-size="14.00">squared_error = 7309.688</text>
<text text-anchor="start" x="427.5" y="-119.3" font-family="Helvetica,sans-Serif" font-size="14.00">samples = 4</text>
<text text-anchor="start" x="420" y="-104.3" font-family="Helvetica,sans-Serif" font-size="14.00">value = 353.25</text>
</g>
<!-- 16&#45;&gt;18 -->
<g id="edge10" class="edge">
<title>16&#45;&gt;18</title>
<path fill="none" stroke="black" d="M462.97,-192.88C463.29,-182.22 463.64,-170.35 463.96,-159.52"/>
<polygon fill="black" stroke="black" points="467.45,-159.62 464.25,-149.52 460.46,-159.41 467.45,-159.62"/>
</g>
<!-- 13 -->
<g id="node13" class="node">
<title>13</title>
<path fill="#f9e4d4" stroke="black" d="M727.5,-261C727.5,-261 578.5,-261 578.5,-261 572.5,-261 566.5,-255 566.5,-249 566.5,-249 566.5,-205 566.5,-205 566.5,-199 572.5,-193 578.5,-193 578.5,-193 727.5,-193 727.5,-193 733.5,-193 739.5,-199 739.5,-205 739.5,-205 739.5,-249 739.5,-249 739.5,-255 733.5,-261 727.5,-261"/>
<text text-anchor="start" x="617.5" y="-245.8" font-family="Helvetica,sans-Serif" font-size="14.00">RM ≤ 311.0</text>
<text text-anchor="start" x="574.5" y="-230.8" font-family="Helvetica,sans-Serif" font-size="14.00">squared_error = 8399.688</text>
<text text-anchor="start" x="612" y="-215.8" font-family="Helvetica,sans-Serif" font-size="14.00">samples = 12</text>
<text text-anchor="start" x="608" y="-200.8" font-family="Helvetica,sans-Serif" font-size="14.00">value = 357.25</text>
</g>
<!-- 10&#45;&gt;13 -->
<g id="edge12" class="edge">
<title>10&#45;&gt;13</title>
<path fill="none" stroke="black" d="M655.7,-296.88C655.38,-288.78 655.04,-279.98 654.7,-271.47"/>
<polygon fill="black" stroke="black" points="658.2,-271.15 654.31,-261.3 651.2,-271.43 658.2,-271.15"/>
</g>
<!-- 14 -->
<g id="node18" class="node">
<title>14</title>
<path fill="#f7d9c3" stroke="black" d="M912,-253.5C912,-253.5 770,-253.5 770,-253.5 764,-253.5 758,-247.5 758,-241.5 758,-241.5 758,-212.5 758,-212.5 758,-206.5 764,-200.5 770,-200.5 770,-200.5 912,-200.5 912,-200.5 918,-200.5 924,-206.5 924,-212.5 924,-212.5 924,-241.5 924,-241.5 924,-247.5 918,-253.5 912,-253.5"/>
<text text-anchor="start" x="766" y="-238.3" font-family="Helvetica,sans-Serif" font-size="14.00">squared_error = 5296.25</text>
<text text-anchor="start" x="803.5" y="-223.3" font-family="Helvetica,sans-Serif" font-size="14.00">samples = 6</text>
<text text-anchor="start" x="800" y="-208.3" font-family="Helvetica,sans-Serif" font-size="14.00">value = 480.5</text>
</g>
<!-- 10&#45;&gt;14 -->
<g id="edge17" class="edge">
<title>10&#45;&gt;14</title>
<path fill="none" stroke="black" d="M716.74,-296.88C739.06,-284.51 764.28,-270.53 786.14,-258.41"/>
<polygon fill="black" stroke="black" points="787.91,-261.43 794.96,-253.52 784.52,-255.31 787.91,-261.43"/>
</g>
<!-- 21 -->
<g id="node14" class="node">
<title>21</title>
<path fill="#fbede2" stroke="black" d="M713.5,-149.5C713.5,-149.5 586.5,-149.5 586.5,-149.5 580.5,-149.5 574.5,-143.5 574.5,-137.5 574.5,-137.5 574.5,-108.5 574.5,-108.5 574.5,-102.5 580.5,-96.5 586.5,-96.5 586.5,-96.5 713.5,-96.5 713.5,-96.5 719.5,-96.5 725.5,-102.5 725.5,-108.5 725.5,-108.5 725.5,-137.5 725.5,-137.5 725.5,-143.5 719.5,-149.5 713.5,-149.5"/>
<text text-anchor="start" x="582.5" y="-134.3" font-family="Helvetica,sans-Serif" font-size="14.00">squared_error = 484.0</text>
<text text-anchor="start" x="612.5" y="-119.3" font-family="Helvetica,sans-Serif" font-size="14.00">samples = 2</text>
<text text-anchor="start" x="609" y="-104.3" font-family="Helvetica,sans-Serif" font-size="14.00">value = 251.0</text>
</g>
<!-- 13&#45;&gt;21 -->
<g id="edge13" class="edge">
<title>13&#45;&gt;21</title>
<path fill="none" stroke="black" d="M652.03,-192.88C651.71,-182.22 651.36,-170.35 651.04,-159.52"/>
<polygon fill="black" stroke="black" points="654.54,-159.41 650.75,-149.52 647.55,-159.62 654.54,-159.41"/>
</g>
<!-- 22 -->
<g id="node15" class="node">
<title>22</title>
<path fill="#f9e2d1" stroke="black" d="M898,-157C898,-157 756,-157 756,-157 750,-157 744,-151 744,-145 744,-145 744,-101 744,-101 744,-95 750,-89 756,-89 756,-89 898,-89 898,-89 904,-89 910,-95 910,-101 910,-101 910,-145 910,-145 910,-151 904,-157 898,-157"/>
<text text-anchor="start" x="791.5" y="-141.8" font-family="Helvetica,sans-Serif" font-size="14.00">RM ≤ 522.0</text>
<text text-anchor="start" x="752" y="-126.8" font-family="Helvetica,sans-Serif" font-size="14.00">squared_error = 7273.45</text>
<text text-anchor="start" x="786" y="-111.8" font-family="Helvetica,sans-Serif" font-size="14.00">samples = 10</text>
<text text-anchor="start" x="786" y="-96.8" font-family="Helvetica,sans-Serif" font-size="14.00">value = 378.5</text>
</g>
<!-- 13&#45;&gt;22 -->
<g id="edge14" class="edge">
<title>13&#45;&gt;22</title>
<path fill="none" stroke="black" d="M709.49,-192.88C726.14,-183.12 744.49,-172.37 761.65,-162.31"/>
<polygon fill="black" stroke="black" points="763.64,-165.2 770.49,-157.12 760.1,-159.16 763.64,-165.2"/>
</g>
<!-- 23 -->
<g id="node16" class="node">
<title>23</title>
<path fill="#f5ceb2" stroke="black" d="M797,-53C797,-53 685,-53 685,-53 679,-53 673,-47 673,-41 673,-41 673,-12 673,-12 673,-6 679,0 685,0 685,0 797,0 797,0 803,0 809,-6 809,-12 809,-12 809,-41 809,-41 809,-47 803,-53 797,-53"/>
<text text-anchor="start" x="681" y="-37.8" font-family="Helvetica,sans-Serif" font-size="14.00">squared_error = 0.0</text>
<text text-anchor="start" x="703.5" y="-22.8" font-family="Helvetica,sans-Serif" font-size="14.00">samples = 1</text>
<text text-anchor="start" x="700" y="-7.8" font-family="Helvetica,sans-Serif" font-size="14.00">value = 614.0</text>
</g>
<!-- 22&#45;&gt;23 -->
<g id="edge15" class="edge">
<title>22&#45;&gt;23</title>
<path fill="none" stroke="black" d="M796.92,-88.95C788.6,-79.8 779.56,-69.87 771.23,-60.71"/>
<polygon fill="black" stroke="black" points="773.74,-58.28 764.42,-53.24 768.56,-62.99 773.74,-58.28"/>
</g>
<!-- 24 -->
<g id="node17" class="node">
<title>24</title>
<path fill="#f9e4d5" stroke="black" d="M988.5,-53C988.5,-53 839.5,-53 839.5,-53 833.5,-53 827.5,-47 827.5,-41 827.5,-41 827.5,-12 827.5,-12 827.5,-6 833.5,0 839.5,0 839.5,0 988.5,0 988.5,0 994.5,0 1000.5,-6 1000.5,-12 1000.5,-12 1000.5,-41 1000.5,-41 1000.5,-47 994.5,-53 988.5,-53"/>
<text text-anchor="start" x="835.5" y="-37.8" font-family="Helvetica,sans-Serif" font-size="14.00">squared_error = 1234.667</text>
<text text-anchor="start" x="876.5" y="-22.8" font-family="Helvetica,sans-Serif" font-size="14.00">samples = 9</text>
<text text-anchor="start" x="865.5" y="-7.8" font-family="Helvetica,sans-Serif" font-size="14.00">value = 352.333</text>
</g>
<!-- 22&#45;&gt;24 -->
<g id="edge16" class="edge">
<title>22&#45;&gt;24</title>
<path fill="none" stroke="black" d="M857.43,-88.95C865.85,-79.8 874.99,-69.87 883.42,-60.71"/>
<polygon fill="black" stroke="black" points="886.11,-62.96 890.31,-53.24 880.96,-58.22 886.11,-62.96"/>
</g>
<!-- 5 -->
<g id="node20" class="node">
<title>5</title>
<path fill="#f3c5a4" stroke="black" d="M1202.5,-469C1202.5,-469 1045.5,-469 1045.5,-469 1039.5,-469 1033.5,-463 1033.5,-457 1033.5,-457 1033.5,-413 1033.5,-413 1033.5,-407 1039.5,-401 1045.5,-401 1045.5,-401 1202.5,-401 1202.5,-401 1208.5,-401 1214.5,-407 1214.5,-413 1214.5,-413 1214.5,-457 1214.5,-457 1214.5,-463 1208.5,-469 1202.5,-469"/>
<text text-anchor="start" x="1075.5" y="-453.8" font-family="Helvetica,sans-Serif" font-size="14.00">LSTAT ≤ 4331.0</text>
<text text-anchor="start" x="1041.5" y="-438.8" font-family="Helvetica,sans-Serif" font-size="14.00">squared_error = 41103.417</text>
<text text-anchor="start" x="1083" y="-423.8" font-family="Helvetica,sans-Serif" font-size="14.00">samples = 12</text>
<text text-anchor="start" x="1083" y="-408.8" font-family="Helvetica,sans-Serif" font-size="14.00">value = 716.5</text>
</g>
<!-- 2&#45;&gt;5 -->
<g id="edge19" class="edge">
<title>2&#45;&gt;5</title>
<path fill="none" stroke="black" d="M1124,-504.88C1124,-496.78 1124,-487.98 1124,-479.47"/>
<polygon fill="black" stroke="black" points="1127.5,-479.3 1124,-469.3 1120.5,-479.3 1127.5,-479.3"/>
</g>
<!-- 6 -->
<g id="node25" class="node">
<title>6</title>
<path fill="#e88f50" stroke="black" d="M1482,-469C1482,-469 1340,-469 1340,-469 1334,-469 1328,-463 1328,-457 1328,-457 1328,-413 1328,-413 1328,-407 1334,-401 1340,-401 1340,-401 1482,-401 1482,-401 1488,-401 1494,-407 1494,-413 1494,-413 1494,-457 1494,-457 1494,-463 1488,-469 1482,-469"/>
<text text-anchor="start" x="1362.5" y="-453.8" font-family="Helvetica,sans-Serif" font-size="14.00">LSTAT ≤ 6264.0</text>
<text text-anchor="start" x="1336" y="-438.8" font-family="Helvetica,sans-Serif" font-size="14.00">squared_error = 11958.5</text>
<text text-anchor="start" x="1373.5" y="-423.8" font-family="Helvetica,sans-Serif" font-size="14.00">samples = 4</text>
<text text-anchor="start" x="1366" y="-408.8" font-family="Helvetica,sans-Serif" font-size="14.00">value = 1351.0</text>
</g>
<!-- 2&#45;&gt;6 -->
<g id="edge24" class="edge">
<title>2&#45;&gt;6</title>
<path fill="none" stroke="black" d="M1217.18,-504.88C1249.66,-493.34 1286.07,-480.4 1318.49,-468.88"/>
<polygon fill="black" stroke="black" points="1319.72,-472.16 1327.97,-465.51 1317.37,-465.56 1319.72,-472.16"/>
</g>
<!-- 7 -->
<g id="node21" class="node">
<title>7</title>
<path fill="#f5d1b6" stroke="black" d="M1103.5,-365C1103.5,-365 954.5,-365 954.5,-365 948.5,-365 942.5,-359 942.5,-353 942.5,-353 942.5,-309 942.5,-309 942.5,-303 948.5,-297 954.5,-297 954.5,-297 1103.5,-297 1103.5,-297 1109.5,-297 1115.5,-303 1115.5,-309 1115.5,-309 1115.5,-353 1115.5,-353 1115.5,-359 1109.5,-365 1103.5,-365"/>
<text text-anchor="start" x="989.5" y="-349.8" font-family="Helvetica,sans-Serif" font-size="14.00">RM ≤ 2391.5</text>
<text text-anchor="start" x="950.5" y="-334.8" font-family="Helvetica,sans-Serif" font-size="14.00">squared_error = 6147.359</text>
<text text-anchor="start" x="991.5" y="-319.8" font-family="Helvetica,sans-Serif" font-size="14.00">samples = 8</text>
<text text-anchor="start" x="980.5" y="-304.8" font-family="Helvetica,sans-Serif" font-size="14.00">value = 581.125</text>
</g>
<!-- 5&#45;&gt;7 -->
<g id="edge20" class="edge">
<title>5&#45;&gt;7</title>
<path fill="none" stroke="black" d="M1093.16,-400.88C1084.78,-391.89 1075.61,-382.04 1066.89,-372.68"/>
<polygon fill="black" stroke="black" points="1069.39,-370.23 1060.01,-365.3 1064.27,-375 1069.39,-370.23"/>
</g>
<!-- 8 -->
<g id="node24" class="node">
<title>8</title>
<path fill="#eeae80" stroke="black" d="M1294.5,-357.5C1294.5,-357.5 1145.5,-357.5 1145.5,-357.5 1139.5,-357.5 1133.5,-351.5 1133.5,-345.5 1133.5,-345.5 1133.5,-316.5 1133.5,-316.5 1133.5,-310.5 1139.5,-304.5 1145.5,-304.5 1145.5,-304.5 1294.5,-304.5 1294.5,-304.5 1300.5,-304.5 1306.5,-310.5 1306.5,-316.5 1306.5,-316.5 1306.5,-345.5 1306.5,-345.5 1306.5,-351.5 1300.5,-357.5 1294.5,-357.5"/>
<text text-anchor="start" x="1141.5" y="-342.3" font-family="Helvetica,sans-Serif" font-size="14.00">squared_error = 1057.188</text>
<text text-anchor="start" x="1182.5" y="-327.3" font-family="Helvetica,sans-Serif" font-size="14.00">samples = 4</text>
<text text-anchor="start" x="1175" y="-312.3" font-family="Helvetica,sans-Serif" font-size="14.00">value = 987.25</text>
</g>
<!-- 5&#45;&gt;8 -->
<g id="edge23" class="edge">
<title>5&#45;&gt;8</title>
<path fill="none" stroke="black" d="M1155.17,-400.88C1166.04,-389.34 1178.22,-376.39 1189.07,-364.86"/>
<polygon fill="black" stroke="black" points="1191.68,-367.2 1195.98,-357.52 1186.58,-362.4 1191.68,-367.2"/>
</g>
<!-- 25 -->
<g id="node22" class="node">
<title>25</title>
<path fill="#f5cfb3" stroke="black" d="M1103.5,-253.5C1103.5,-253.5 954.5,-253.5 954.5,-253.5 948.5,-253.5 942.5,-247.5 942.5,-241.5 942.5,-241.5 942.5,-212.5 942.5,-212.5 942.5,-206.5 948.5,-200.5 954.5,-200.5 954.5,-200.5 1103.5,-200.5 1103.5,-200.5 1109.5,-200.5 1115.5,-206.5 1115.5,-212.5 1115.5,-212.5 1115.5,-241.5 1115.5,-241.5 1115.5,-247.5 1109.5,-253.5 1103.5,-253.5"/>
<text text-anchor="start" x="950.5" y="-238.3" font-family="Helvetica,sans-Serif" font-size="14.00">squared_error = 3955.633</text>
<text text-anchor="start" x="991.5" y="-223.3" font-family="Helvetica,sans-Serif" font-size="14.00">samples = 7</text>
<text text-anchor="start" x="980.5" y="-208.3" font-family="Helvetica,sans-Serif" font-size="14.00">value = 600.714</text>
</g>
<!-- 7&#45;&gt;25 -->
<g id="edge21" class="edge">
<title>7&#45;&gt;25</title>
<path fill="none" stroke="black" d="M1029,-296.88C1029,-286.33 1029,-274.6 1029,-263.85"/>
<polygon fill="black" stroke="black" points="1032.5,-263.52 1029,-253.52 1025.5,-263.52 1032.5,-263.52"/>
</g>
<!-- 26 -->
<g id="node23" class="node">
<title>26</title>
<path fill="#f8dcc8" stroke="black" d="M1258,-253.5C1258,-253.5 1146,-253.5 1146,-253.5 1140,-253.5 1134,-247.5 1134,-241.5 1134,-241.5 1134,-212.5 1134,-212.5 1134,-206.5 1140,-200.5 1146,-200.5 1146,-200.5 1258,-200.5 1258,-200.5 1264,-200.5 1270,-206.5 1270,-212.5 1270,-212.5 1270,-241.5 1270,-241.5 1270,-247.5 1264,-253.5 1258,-253.5"/>
<text text-anchor="start" x="1142" y="-238.3" font-family="Helvetica,sans-Serif" font-size="14.00">squared_error = 0.0</text>
<text text-anchor="start" x="1164.5" y="-223.3" font-family="Helvetica,sans-Serif" font-size="14.00">samples = 1</text>
<text text-anchor="start" x="1161" y="-208.3" font-family="Helvetica,sans-Serif" font-size="14.00">value = 444.0</text>
</g>
<!-- 7&#45;&gt;26 -->
<g id="edge22" class="edge">
<title>7&#45;&gt;26</title>
<path fill="none" stroke="black" d="M1085.17,-296.88C1105.97,-284.62 1129.44,-270.78 1149.87,-258.74"/>
<polygon fill="black" stroke="black" points="1151.88,-261.61 1158.72,-253.52 1148.32,-255.58 1151.88,-261.61"/>
</g>
<!-- 19 -->
<g id="node26" class="node">
<title>19</title>
<path fill="#e99457" stroke="black" d="M1485.5,-357.5C1485.5,-357.5 1336.5,-357.5 1336.5,-357.5 1330.5,-357.5 1324.5,-351.5 1324.5,-345.5 1324.5,-345.5 1324.5,-316.5 1324.5,-316.5 1324.5,-310.5 1330.5,-304.5 1336.5,-304.5 1336.5,-304.5 1485.5,-304.5 1485.5,-304.5 1491.5,-304.5 1497.5,-310.5 1497.5,-316.5 1497.5,-316.5 1497.5,-345.5 1497.5,-345.5 1497.5,-351.5 1491.5,-357.5 1485.5,-357.5"/>
<text text-anchor="start" x="1332.5" y="-342.3" font-family="Helvetica,sans-Serif" font-size="14.00">squared_error = 3100.222</text>
<text text-anchor="start" x="1373.5" y="-327.3" font-family="Helvetica,sans-Serif" font-size="14.00">samples = 3</text>
<text text-anchor="start" x="1358.5" y="-312.3" font-family="Helvetica,sans-Serif" font-size="14.00">value = 1294.333</text>
</g>
<!-- 6&#45;&gt;19 -->
<g id="edge25" class="edge">
<title>6&#45;&gt;19</title>
<path fill="none" stroke="black" d="M1411,-400.88C1411,-390.33 1411,-378.6 1411,-367.85"/>
<polygon fill="black" stroke="black" points="1414.5,-367.52 1411,-357.52 1407.5,-367.52 1414.5,-367.52"/>
</g>
<!-- 20 -->
<g id="node27" class="node">
<title>20</title>
<path fill="#e58139" stroke="black" d="M1640,-357.5C1640,-357.5 1528,-357.5 1528,-357.5 1522,-357.5 1516,-351.5 1516,-345.5 1516,-345.5 1516,-316.5 1516,-316.5 1516,-310.5 1522,-304.5 1528,-304.5 1528,-304.5 1640,-304.5 1640,-304.5 1646,-304.5 1652,-310.5 1652,-316.5 1652,-316.5 1652,-345.5 1652,-345.5 1652,-351.5 1646,-357.5 1640,-357.5"/>
<text text-anchor="start" x="1524" y="-342.3" font-family="Helvetica,sans-Serif" font-size="14.00">squared_error = 0.0</text>
<text text-anchor="start" x="1546.5" y="-327.3" font-family="Helvetica,sans-Serif" font-size="14.00">samples = 1</text>
<text text-anchor="start" x="1539" y="-312.3" font-family="Helvetica,sans-Serif" font-size="14.00">value = 1521.0</text>
</g>
<!-- 6&#45;&gt;20 -->
<g id="edge26" class="edge">
<title>6&#45;&gt;20</title>
<path fill="none" stroke="black" d="M1467.17,-400.88C1487.97,-388.62 1511.44,-374.78 1531.87,-362.74"/>
<polygon fill="black" stroke="black" points="1533.88,-365.61 1540.72,-357.52 1530.32,-359.58 1533.88,-365.61"/>
</g>
</g>
</svg>
